<svg width="147" height="147" viewBox="0 0 147 147" fill="none" xmlns="http://www.w3.org/2000/svg">
<g filter="url(#filter0_d)">
<rect x="33" y="16.7727" width="72" height="101.455" rx="5" fill="white"/>
<rect x="33.5" y="17.2727" width="71" height="100.455" rx="4.5" stroke="#FF4081" stroke-linecap="round"/>
</g>
<rect x="40.5" y="23.8182" width="57.9091" height="77.5455" rx="3.5" stroke="#FF4081" stroke-linecap="round"/>
<circle cx="69" cy="110.136" r="2" fill="#FF4081"/>
<g filter="url(#filter1_d)">
<path d="M107.86 83.5954C111.425 86.9118 105.951 90.2808 103.747 93.6137C98.2629 101.905 120.405 101.214 128.768 87.3954C133.882 78.9451 135.623 65.9769 126.711 58.0314C117.8 50.0858 101.348 54.9222 92.436 63.5587C83.5245 72.1952 82.4962 84.9772 90.0368 88.7773C97.5773 92.5773 103.404 79.4498 107.86 83.5954Z" fill="white"/>
<path d="M107.86 83.5954C111.425 86.9118 105.951 90.2808 103.747 93.6137C98.2629 101.905 120.405 101.214 128.768 87.3954C133.882 78.9451 135.623 65.9769 126.711 58.0314C117.8 50.0858 101.348 54.9222 92.436 63.5587C83.5245 72.1952 82.4962 84.9772 90.0368 88.7773C97.5773 92.5773 103.404 79.4498 107.86 83.5954Z" stroke="#FF4081" stroke-linecap="round"/>
</g>
<circle cx="92.5" cy="82.5" r="2" stroke="#FF4081" stroke-linecap="round"/>
<circle cx="93.5" cy="73.5" r="2" stroke="#FF4081" stroke-linecap="round"/>
<circle cx="98.5" cy="66.5" r="2" stroke="#FF4081" stroke-linecap="round"/>
<circle cx="105.5" cy="62.5" r="2" stroke="#FF4081" stroke-linecap="round"/>
<circle cx="114.5" cy="59.5" r="2" stroke="#FF4081" stroke-linecap="round"/>
<path d="M118.833 74.6457C120.132 76.3085 119.601 79.1022 117.346 80.864C115.091 82.6258 112.252 82.4651 110.953 80.8023C109.654 79.1394 110.185 76.3457 112.44 74.5839C114.695 72.8222 117.534 72.9828 118.833 74.6457Z" stroke="#FF4081" stroke-linecap="round"/>
<g filter="url(#filter2_d)">
<path d="M24.5602 78.669L24.7615 72.1722L29.5748 76.5404C29.8963 76.8322 30.1506 77.1902 30.3202 77.5898L51.553 127.611C52.2004 129.136 51.4888 130.897 49.9637 131.545C48.4385 132.192 46.6773 131.481 46.03 129.955L24.7972 79.9342C24.6276 79.5346 24.5467 79.1029 24.5602 78.669Z" fill="white"/>
<path d="M24.5602 78.669L24.7615 72.1722L29.5748 76.5404C29.8963 76.8322 30.1506 77.1902 30.3202 77.5898L51.553 127.611C52.2004 129.136 51.4888 130.897 49.9637 131.545C48.4385 132.192 46.6773 131.481 46.03 129.955L24.7972 79.9342C24.6276 79.5346 24.5467 79.1029 24.5602 78.669Z" stroke="#FF4081" stroke-linecap="round" stroke-linejoin="round"/>
</g>
<path d="M44.2717 125.813L49.7948 123.469" stroke="#FF4081" stroke-linecap="round"/>
<path d="M45.0532 127.654L50.5763 125.31" stroke="#FF4081" stroke-linecap="round"/>
<path d="M46.1127 125.032L26.5762 79.0064" stroke="#FF4081" stroke-linecap="round" stroke-linejoin="round"/>
<path d="M47.9538 124.25L28.4172 78.225" stroke="#FF4081" stroke-linecap="round" stroke-linejoin="round"/>
<path d="M24.7351 79.7879C24.8654 80.0947 25.3099 80.6303 26.0463 80.3177C26.7827 80.0051 26.7064 79.3133 26.5761 79.0064C26.7064 79.3133 27.1509 79.8488 27.8874 79.5362C28.6238 79.2236 28.5474 78.5318 28.4171 78.225C28.5474 78.5318 28.992 79.0673 29.7284 78.7548C30.4648 78.4422 30.3884 77.7503 30.2581 77.4435" stroke="#FF4081" stroke-linecap="round" stroke-linejoin="round"/>
<path d="M24.6225 74.4039L24.7616 72.1722L26.4635 73.6224L24.6225 74.4039Z" fill="#FF4081" stroke="#FF4081" stroke-linecap="round" stroke-linejoin="round"/>
<g filter="url(#filter3_d)">
<rect x="7" y="12.8748" width="40" height="30" rx="3" transform="rotate(-7 7 12.8748)" fill="white"/>
<rect x="7.55721" y="13.3101" width="39" height="29" rx="2.5" transform="rotate(-7 7.55721 13.3101)" stroke="#FF4081" stroke-linecap="round" stroke-linejoin="round"/>
</g>
<path d="M30.6032 24.5856L26.3284 22.5917L26.9377 27.5544L30.6032 24.5856Z" fill="#FF4081" stroke="#FF4081" stroke-linecap="round" stroke-linejoin="round"/>
<circle cx="28.1217" cy="24.8903" r="8" transform="rotate(-7 28.1217 24.8903)" stroke="#FF4081" stroke-linecap="round"/>
<g filter="url(#filter4_d)">
<rect x="18.0024" y="34.4317" width="40" height="30" rx="3" transform="rotate(-4 18.0024 34.4317)" fill="white"/>
<rect x="18.5361" y="34.8956" width="39" height="29" rx="2.5" transform="rotate(-4 18.5361 34.8956)" stroke="#FF4081" stroke-linecap="round" stroke-linejoin="round"/>
</g>
<circle cx="31.2045" cy="44.0341" r="5" transform="rotate(-4 31.2045 44.0341)" stroke="#FF4081" stroke-linecap="round"/>
<path d="M28.7803 45.2061L19.9662 55.3456L20.3847 61.331C20.5242 63.3261 22.2217 63.7087 23.053 63.6505L47.9921 61.9066L28.7803 45.2061Z" fill="white" stroke="#FF4081" stroke-linecap="round" stroke-linejoin="round"/>
<path d="M39.4534 54.4842L48.7315 43.8109L58.871 52.6251" stroke="#FF4081" stroke-linecap="round" stroke-linejoin="round"/>
<path d="M69 57V77" stroke="#FF4081" stroke-width="1.5" stroke-linecap="round" stroke-linejoin="round"/>
<path d="M79 67H59" stroke="#FF4081" stroke-width="1.5" stroke-linecap="round" stroke-linejoin="round"/>
<defs>
<filter id="filter0_d" x="26" y="9.77274" width="92" height="121.455" filterUnits="userSpaceOnUse" color-interpolation-filters="sRGB">
<feFlood flood-opacity="0" result="BackgroundImageFix"/>
<feColorMatrix in="SourceAlpha" type="matrix" values="0 0 0 0 0 0 0 0 0 0 0 0 0 0 0 0 0 0 127 0"/>
<feOffset dx="3" dy="3"/>
<feGaussianBlur stdDeviation="5"/>
<feColorMatrix type="matrix" values="0 0 0 0 0 0 0 0 0 0 0 0 0 0 0 0 0 0 0.05 0"/>
<feBlend mode="normal" in2="BackgroundImageFix" result="effect1_dropShadow"/>
<feBlend mode="normal" in="SourceGraphic" in2="effect1_dropShadow" result="shape"/>
</filter>
<filter id="filter1_d" x="77.5002" y="46.5004" width="68.9996" height="65.9996" filterUnits="userSpaceOnUse" color-interpolation-filters="sRGB">
<feFlood flood-opacity="0" result="BackgroundImageFix"/>
<feColorMatrix in="SourceAlpha" type="matrix" values="0 0 0 0 0 0 0 0 0 0 0 0 0 0 0 0 0 0 127 0"/>
<feOffset dx="3" dy="3"/>
<feGaussianBlur stdDeviation="5"/>
<feColorMatrix type="matrix" values="0 0 0 0 0 0 0 0 0 0 0 0 0 0 0 0 0 0 0.05 0"/>
<feBlend mode="normal" in2="BackgroundImageFix" result="effect1_dropShadow"/>
<feBlend mode="normal" in="SourceGraphic" in2="effect1_dropShadow" result="shape"/>
</filter>
<filter id="filter2_d" x="14.3445" y="63.3444" width="52.0364" height="83.0282" filterUnits="userSpaceOnUse" color-interpolation-filters="sRGB">
<feFlood flood-opacity="0" result="BackgroundImageFix"/>
<feColorMatrix in="SourceAlpha" type="matrix" values="0 0 0 0 0 0 0 0 0 0 0 0 0 0 0 0 0 0 127 0"/>
<feOffset dx="3" dy="3"/>
<feGaussianBlur stdDeviation="5"/>
<feColorMatrix type="matrix" values="0 0 0 0 0 0 0 0 0 0 0 0 0 0 0 0 0 0 0.05 0"/>
<feBlend mode="normal" in2="BackgroundImageFix" result="effect1_dropShadow"/>
<feBlend mode="normal" in="SourceGraphic" in2="effect1_dropShadow" result="shape"/>
</filter>
<filter id="filter3_d" x="0" y="1" width="63.3579" height="54.6512" filterUnits="userSpaceOnUse" color-interpolation-filters="sRGB">
<feFlood flood-opacity="0" result="BackgroundImageFix"/>
<feColorMatrix in="SourceAlpha" type="matrix" values="0 0 0 0 0 0 0 0 0 0 0 0 0 0 0 0 0 0 127 0"/>
<feOffset dx="3" dy="3"/>
<feGaussianBlur stdDeviation="5"/>
<feColorMatrix type="matrix" values="0 0 0 0 0 0 0 0 0 0 0 0 0 0 0 0 0 0 0.05 0"/>
<feBlend mode="normal" in2="BackgroundImageFix" result="effect1_dropShadow"/>
<feBlend mode="normal" in="SourceGraphic" in2="effect1_dropShadow" result="shape"/>
</filter>
<filter id="filter4_d" x="11.0024" y="24.6414" width="61.9953" height="52.7172" filterUnits="userSpaceOnUse" color-interpolation-filters="sRGB">
<feFlood flood-opacity="0" result="BackgroundImageFix"/>
<feColorMatrix in="SourceAlpha" type="matrix" values="0 0 0 0 0 0 0 0 0 0 0 0 0 0 0 0 0 0 127 0"/>
<feOffset dx="3" dy="3"/>
<feGaussianBlur stdDeviation="5"/>
<feColorMatrix type="matrix" values="0 0 0 0 0 0 0 0 0 0 0 0 0 0 0 0 0 0 0.05 0"/>
<feBlend mode="normal" in2="BackgroundImageFix" result="effect1_dropShadow"/>
<feBlend mode="normal" in="SourceGraphic" in2="effect1_dropShadow" result="shape"/>
</filter>
</defs>
</svg>
